{"accessors": [{"bufferView": 2, "componentType": 5126, "count": 16896, "max": [0.2333579957485199, 1.847872018814087, 0.1437470018863678], "min": [-0.23662100732326508, 1.3635400533676147, -0.19724200665950775], "type": "VEC3"}, {"bufferView": 2, "byteOffset": 202752, "componentType": 5126, "count": 16896, "max": [0.9999285340309143, 0.9999268651008606, 0.9999622106552124], "min": [-0.9999626278877258, -0.9995540976524353, -0.9999794960021973], "type": "VEC3"}, {"bufferView": 3, "componentType": 5126, "count": 16896, "max": [0.999406099319458, 0.9998953938484192, 0.9999759197235107, 1.0], "min": [-0.9999821186065674, -0.9942288398742676, -0.9999405741691589, -1.0], "type": "VEC4"}, {"bufferView": 1, "componentType": 5126, "count": 16896, "max": [0.9989510178565979, 0.9656299948692322], "min": [0.0010489999549463391, 0.0010489999549463391], "type": "VEC2"}, {"bufferView": 0, "componentType": 5125, "count": 83574, "type": "SCALAR"}], "asset": {"extras": {"author": "collinsweeney (https://sketchfab.com/collinsweeney)", "license": "CC-BY-4.0 (http://creativecommons.org/licenses/by/4.0/)", "source": "https://sketchfab.com/3d-models/accessory-hood-cowl-001-9a6d8f8c1113444fb8504d758d032b38", "title": "Accessory_Hood Cowl 001"}, "generator": "Sketchfab-16.21.0", "version": "2.0"}, "bufferViews": [{"buffer": 0, "byteLength": 334296, "name": "floatBufferViews", "target": 34963}, {"buffer": 0, "byteLength": 135168, "byteOffset": 334296, "byteStride": 8, "name": "floatBufferViews", "target": 34962}, {"buffer": 0, "byteLength": 405504, "byteOffset": 469464, "byteStride": 12, "name": "floatBufferViews", "target": 34962}, {"buffer": 0, "byteLength": 270336, "byteOffset": 874968, "byteStride": 16, "name": "floatBufferViews", "target": 34962}], "buffers": [{"byteLength": 1145304, "uri": "scene.bin"}], "images": [], "materials": [{"doubleSided": true, "name": "base_material_001_1001", "pbrMetallicRoughness": {"baseColorFactor": [0.0, 0.0, 0.0, 1.0]}}], "meshes": [{"name": "defaultMaterial", "primitives": [{"attributes": {"NORMAL": 1, "POSITION": 0, "TANGENT": 2, "TEXCOORD_0": 3}, "indices": 4, "material": 0, "mode": 4}]}], "nodes": [{"children": [1], "matrix": [1.0, 0.0, 0.0, 0.0, 0.0, 2.220446049250313e-16, -1.0, 0.0, 0.0, 1.0, 2.220446049250313e-16, 0.0, 0.0, 0.0, 0.0, 1.0], "name": "Sketchfab_model"}, {"children": [2], "matrix": [1.0, 0.0, 0.0, 0.0, 0.0, -4.371139006309477e-08, 0.999999999999999, 0.0, 0.0, -0.999999999999999, -4.371139006309477e-08, 0.0, 0.0, 0.0, 0.0, 1.0], "name": "Collada visual scene group"}, {"children": [3], "name": "mesh.001"}, {"mesh": 0, "name": "defaultMaterial"}], "samplers": [], "scene": 0, "scenes": [{"name": "Sketchfab_Scene", "nodes": [0]}], "textures": []}